<svg xmlns="http://www.w3.org/2000/svg" viewBox="0 0 220.48 68.06"><defs><style>.cls-1{fill:#231916;}</style></defs><g id="Layer_2" data-name="Layer 2"><g id="레이어_1" data-name="레이어 1"><path class="cls-1" d="M15.11.92A14.36,14.36,0,0,0,4.4,5.46,15.46,15.46,0,0,0,0,16.61a15.61,15.61,0,0,0,4.4,11.3,14.33,14.33,0,0,0,10.71,4.55,14.4,14.4,0,0,0,10.64-4.55,15.46,15.46,0,0,0,4.47-11.3A15.31,15.31,0,0,0,25.75,5.46,14.43,14.43,0,0,0,15.11.92Zm3.52,19.44a4.72,4.72,0,0,1-3.52,1.54,4.49,4.49,0,0,1-3.45-1.54,5.39,5.39,0,0,1-1.39-3.75,5.39,5.39,0,0,1,1.39-3.74,4.49,4.49,0,0,1,3.45-1.54,4.72,4.72,0,0,1,3.52,1.54,5.23,5.23,0,0,1,1.47,3.74A5.24,5.24,0,0,1,18.63,20.36Z"/><polygon class="cls-1" points="70.04 66.5 101.41 66.5 112.48 55.43 70.04 55.43 70.04 66.5"/><polygon class="cls-1" points="92.19 36.98 81.11 36.98 81.11 29.59 92.19 29.59 92.19 18.52 81.11 18.52 81.11 11.14 92.19 11.14 92.19 0.07 70.04 0.07 70.04 48.05 92.19 48.05 92.19 36.98"/><polygon class="cls-1" points="174.08 32.36 188.35 32.36 188.35 46.64 199.06 46.64 199.06 21.66 174.08 21.66 174.08 32.36"/><polygon class="cls-1" points="106.26 10.95 120.54 10.95 120.54 25.23 131.25 25.23 131.25 0.24 106.26 0.24 106.26 10.95"/><polygon class="cls-1" points="209.77 18.61 209.77 46.64 220.48 46.64 220.48 7.91 209.77 18.61"/><polygon class="cls-1" points="58.97 11.07 47.9 11.07 47.9 0 36.83 0 36.83 0.07 36.83 0.07 36.83 48.12 47.9 37.05 47.9 22.21 58.97 22.21 58.97 11.14 58.97 11.14 58.97 11.07"/><path class="cls-1" d="M163.37,39.18V.24h-25V11h14.28v7.14H138.38v10.7h14.28V38.1a14,14,0,0,0-6.28,3.84,14.93,14.93,0,0,0-4.26,10.79,15.1,15.1,0,0,0,4.26,10.93,14.3,14.3,0,0,0,20.64,0,15,15,0,0,0,4.33-10.93A14.79,14.79,0,0,0,167,41.94,15.2,15.2,0,0,0,163.37,39.18Zm-3.23,17.17a4.55,4.55,0,0,1-3.4,1.49,4.33,4.33,0,0,1-3.34-1.49,5.53,5.53,0,0,1,0-7.24,4.33,4.33,0,0,1,3.34-1.49,4.55,4.55,0,0,1,3.4,1.49,5.32,5.32,0,0,1,0,7.24Z"/></g></g></svg>